<svg width="600" height="614" viewBox="0 0 600 614" fill="none" xmlns="http://www.w3.org/2000/svg">
<path d="M600 314C600 479.685 465.685 614 300 614C134.315 614 0 479.685 0 314C0 148.315 134.315 14 300 14C465.685 14 600 148.315 600 314ZM3.28708 314C3.28708 477.87 136.13 610.713 300 610.713C463.87 610.713 596.713 477.87 596.713 314C596.713 150.13 463.87 17.2871 300 17.2871C136.13 17.2871 3.28708 150.13 3.28708 314Z" fill="#D9D9D9"/>
<circle cx="349.035" cy="25" r="25" fill="#2F6DC2"/>
<path d="M370.677 19.0708C367.531 19.0708 364.276 18.6256 361.369 19.9676C359.944 20.6254 358.775 21.5277 357.719 22.7082C357.317 23.1577 357.294 24.065 357.214 24.628C357.049 25.7825 356.582 26.8806 356.582 28.0507C356.582 31.4537 356.577 35.4817 355.395 38.6724C354.956 39.8577 354.3 40.9067 353.854 42.133C353.376 43.4464 352.812 44.9588 352.035 46.124" stroke="#23A34E" stroke-width="5" stroke-linecap="round"/>
<path d="M347.948 4.37033C347.856 3.64083 341.156 4.12704 340.269 4.64819C337.807 6.09293 337.035 10.2818 337.035 12.8955C337.035 15.4321 337.292 17.0394 339.359 18.5158C340.565 19.3772 342.529 20.8883 344.083 20.966C344.694 20.9965 345.564 20.2255 346.129 19.943C347.058 19.4783 348.414 19.3371 349.198 18.5537C350.662 17.0898 350.718 15.4139 351.534 13.6912C351.897 12.9268 352.009 11.5868 352.216 10.7358C352.355 10.1679 352.31 9.37122 352.254 8.79079C352.14 7.58594 350.83 5.88911 349.994 5.05235" stroke="#23A34E" stroke-width="5" stroke-linecap="round"/>
<path d="M327.035 25C327.107 25.6425 328.646 26.8343 329.195 27.2734C329.507 27.5227 329.962 28.6804 330.168 29.0921C330.985 30.7277 332.009 32.2694 332.896 33.8662C333.539 35.0241 334.672 35.9186 335.27 37.0489C335.842 38.1296 336.806 39.3132 337.266 40.2316" stroke="#23A34E" stroke-width="5" stroke-linecap="round"/>
<path d="M325.723 29.1649C325.723 30.4142 325.988 32.0103 326.581 33.1333C326.969 33.8693 327.444 34.249 328.04 34.8018C328.308 35.0494 328.733 35.6336 329.047 35.7909C329.14 35.8371 328.624 34.997 328.571 34.909C328.278 34.4211 327.964 33.9955 327.57 33.5862C326.935 32.9271 326.834 31.886 326.259 31.2028C326.118 31.0357 325.621 29.9749 325.86 30.1064C328.266 31.4299 329.748 34.2204 330.418 36.78C330.53 37.2087 330.871 37.7707 330.871 38.2101C330.871 38.5575 330.64 37.5522 330.478 37.2448C330.033 36.4012 329.513 35.5991 329.059 34.76C328.692 34.0802 328.043 33.3404 327.784 32.6209C327.737 32.4909 328.487 33.3135 328.577 33.4074C329.041 33.8943 330.469 35.3207 330.001 34.8375C328.859 33.6592 327.758 32.4241 326.843 31.0598C326.567 30.649 326.354 30.2102 326.986 30.6963C327.374 30.9951 327.737 31.3207 328.07 31.6795C328.318 31.9454 328.873 32.8541 328.785 32.5017C328.7 32.1594 328.33 31.7291 328.166 31.4292C327.72 30.6186 327.309 29.7895 326.861 28.9802C326.775 28.825 325.915 27.407 326.485 28.1043C326.74 28.4158 327.328 29.41 327.284 29.01C327.222 28.4511 326.377 27.5315 326.05 27.0854C325.774 26.7082 325.593 26.4261 325.186 26.2452C324.858 26.0993 324.672 25.9231 324.459 25.6255C324.212 25.2796 324.113 24.8992 324.001 24.5053C323.991 24.4718 324.109 25.3886 324.114 25.6017C324.137 26.6279 324.249 27.8015 324.43 28.7955C324.647 29.9918 324.953 30.9993 325.377 32.1442C325.928 33.6315 326.74 35.0128 327.278 36.5059C327.7 37.6785 328.59 38.1611 329.31 39.086C329.538 39.3799 329.614 39.7539 329.751 40.1049C330.043 40.8561 330.641 41.3346 331.324 41.7137C332.692 42.474 333.869 42.5718 335.352 42.5718C335.815 42.5718 334.836 41.9251 334.708 41.7733C333.52 40.3647 332.733 38.6763 331.86 37.066C331.636 36.6539 330.773 35.5845 331.163 35.8445C332.149 36.5023 332.774 38.0858 333.266 39.1098C333.358 39.3 333.54 39.5873 333.54 39.8129C333.54 39.8431 333.081 39.2177 333.052 39.1754C332.169 37.9173 331.157 36.7569 330.251 35.5168C329.867 34.9902 329.798 35.0024 330.198 35.5823C330.989 36.7308 331.544 37.9278 332.146 39.1754C332.175 39.2351 332.342 39.6327 332.122 39.3422C331.552 38.5912 331.027 37.7924 330.489 37.0184C329.899 36.1689 329.359 34.9133 328.577 34.2178C328.361 34.0257 328.781 35.1857 328.797 35.2308C329.337 36.717 329.888 38.1939 330.251 39.7355C330.403 40.38 329.542 38.6164 329.155 38.079C328.859 37.6682 327.802 36.6384 328.261 36.8515C329.03 37.2087 329.633 38.5907 329.941 39.3303C330.406 40.4464 329.762 39.1455 329.465 38.7642C328.989 38.1548 328.24 37.5846 327.892 36.8873C327.856 36.8171 328.598 37.1857 328.714 37.2567C329.354 37.6477 328.527 36.6664 328.404 36.4583C328.12 35.9804 327.785 35.5728 327.457 35.1295C327.376 35.0211 327.123 34.6699 327.427 34.9209C328.165 35.5317 328.683 36.2965 329.351 36.9647C330.111 37.7243 328.145 35.1865 327.564 34.2834C327.511 34.2014 326.685 33.1333 327.033 33.1333C327.428 33.1333 328.053 33.5801 328.38 33.5147C328.641 33.4625 326.034 29.4795 328.106 32.4898C328.588 33.1897 329.129 34.0612 329.733 34.6647C329.932 34.8642 329.175 34.2116 329.28 33.9497C329.321 33.8476 330.82 35.4172 330.93 35.5525C331.099 35.7592 331.265 36.0424 331.491 36.1961C331.625 36.2877 331.125 35.464 331.121 35.4572C330.565 34.545 330.061 33.5998 329.584 32.6447C329.455 32.3873 330.016 33.1888 330.096 33.3002C330.55 33.9283 328.93 31.9161 329.119 32.2396C329.886 33.5541 330.754 34.8101 331.55 36.1067C331.699 36.3494 332.277 36.9984 332.277 37.3044C332.277 37.7004 331.804 36.6694 331.568 36.351C331.449 36.1897 330.304 34.6951 330.99 35.3976C332.846 37.2986 334.302 39.5716 335.578 41.8925C335.788 42.2745 336.674 44.057 335.691 42.9293C335.213 42.3807 334.769 41.7622 334.255 41.249C333.893 40.8872 334.634 42.2086 334.923 42.6314C335.01 42.7594 335.801 43.9011 335.364 43.2451C334.681 42.2211 334.075 41.0891 333.445 40.0334C333.023 39.3272 332.453 38.7687 332.009 38.085C331.64 37.5172 331.856 38.3165 331.967 38.5438C332.303 39.2307 332.742 39.9079 333.01 40.6233C333.142 40.9764 332.278 40.1523 332.158 40.0513C331.815 39.7617 331.545 39.4074 331.216 39.1158C330.828 38.7706 331.854 39.9376 332.146 40.3671C332.253 40.5237 333.155 41.9718 332.599 41.4873C331.734 40.7339 330.955 39.8672 330.144 39.0562C330.023 38.9353 330.862 39.8002 331.026 39.9917C331.203 40.1995 332.162 41.2582 331.437 40.5101C330.949 40.0067 329.481 38.501 329.977 38.9966C330.558 39.5777 331.046 40.2591 331.3 41.0464C331.439 41.4774 331.526 41.5959 331.187 41.1715C331.125 41.0945 330.546 40.4125 330.835 40.6054C331.711 41.1895 332.331 42.2696 332.891 43.1378C333.098 43.4595 333.114 43.4666 332.944 43.0723C332.53 42.1081 332.01 41.1991 331.479 40.2956C331.15 39.7361 330.831 39.1789 330.567 38.5855C330.522 38.4833 330.203 37.9235 330.561 38.1862C331.97 39.2212 332.972 40.7683 333.743 42.3096C334.339 43.5013 333.482 41.5064 333.332 41.2371C333.066 40.761 332.778 40.2871 332.48 39.8308C332.471 39.8169 332.177 39.4436 332.343 39.5329C332.74 39.7468 333.189 40.1393 333.421 40.5339C333.521 40.7036 333.182 40.2405 333.141 40.3016C333.065 40.416 333.375 41.1631 333.403 41.249C333.604 41.8687 333.826 42.4874 334.088 43.0842C334.247 43.4451 334.348 43.72 334.625 43.9661C335.172 44.4526 335.966 44.2879 336.663 44.2879" stroke="#23A34E" stroke-linecap="round"/>
<path d="M325.079 27.0198C325.079 27.8886 325.01 28.6672 325.294 29.4867C325.585 30.3286 326.011 30.3393 326.688 30.881" stroke="#23A34E" stroke-linecap="round"/>
<path d="M326.795 30.452C326.795 29.9943 326.6 29.4092 326.45 28.9743C326.368 28.7395 325.756 28.0221 326.044 27.8779" stroke="#23A34E" stroke-linecap="round"/>
<circle cx="345.535" cy="11.5" r="7.5" fill="#23A34E"/>
<path d="M359.615 23.1587C359.615 24.1835 359.615 25.2084 359.615 26.2333C359.615 26.6286 359.615 27.0238 359.615 27.4191C359.615 27.7633 360.039 27.2862 360.11 27.2284C361.239 26.2995 362.399 25.4129 363.536 24.4934C363.853 24.237 364.882 23.5975 364.501 23.7426C364.297 23.8205 364.072 24.2173 363.977 24.3563C363.323 25.3115 362.73 26.3109 362.1 27.282C360.389 29.9194 358.745 32.5972 357.047 35.2427C357.039 35.2558 356.682 35.9238 356.57 35.8743C356.385 35.7919 356.616 34.951 356.636 34.8673C357.002 33.299 357.737 31.7681 358.465 30.3388C359.02 29.2492 359.539 28.1534 360.211 27.1271C360.598 26.5361 361.224 26.1512 361.653 25.5421C362.046 24.9839 362.714 23.9161 362.714 23.2242C362.714 23.1322 362.618 23.0129 362.618 22.8786C362.618 22.1258 363.372 21.6139 363.893 21.1864C364.471 20.7128 364.906 20.3423 365.598 20.6084C365.944 20.7416 366.213 21.0265 366.539 21.1744C367.465 21.5953 368.142 21.3952 368.541 22.4317C368.818 23.1524 369.638 23.4197 369.912 24.1716C370.344 25.3608 370.3 27.2999 370.019 28.4737C369.857 29.1489 369.291 29.4625 368.94 30.0468C368.426 30.9033 367.997 31.7966 367.397 32.5852C366.097 34.2946 364.768 35.9821 363.476 37.6977C362.347 39.1978 361.204 40.6011 359.675 41.7018C359.081 42.1296 358.328 42.2237 357.685 42.5718C356.937 42.9758 356.578 43.9075 355.885 44.3951C355.06 44.9755 354.367 45.7816 353.662 46.4866C353.581 46.5685 352.906 47.2614 352.906 47.1599C352.906 47.0383 353.865 46.6082 353.954 46.5402C356.116 44.8953 358.011 43.1019 359.824 41.0762C360.934 39.8348 361.396 38.1462 362.165 36.6966C362.845 35.4169 363.297 33.8204 363.56 32.4064C363.605 32.1626 363.447 32.1083 363.256 32.2396C362.566 32.714 362.091 33.7173 361.641 34.3847C360.869 35.5304 360.215 36.776 359.371 37.8705C359.196 38.0976 359.033 38.3083 358.912 38.5676C358.636 39.159 358.39 39.7766 358.137 40.379C357.978 40.7593 357.88 41.3035 357.577 41.6065C357.473 41.7112 356.486 42.4778 356.403 42.1904C356.348 41.996 356.384 41.6642 356.421 41.4754C356.657 40.297 357.97 39.0324 358.817 38.2697C360.175 37.0465 361.817 36.5575 363.321 35.6002C365.705 34.0836 365.537 30.2288 366.205 27.8421C366.417 27.0879 366.558 26.3509 366.885 25.6255C366.964 25.4496 367.081 25.392 366.968 25.6255C366.634 26.3137 365.97 26.9513 365.514 27.5561C364.49 28.9155 363.228 30.1673 362.41 31.6675C362.302 31.8642 362.448 31.4357 362.475 31.3935C363.119 30.3856 364.173 29.5092 365.037 28.7002C365.907 27.8866 366.849 27.2056 367.755 26.4419C368.267 26.0093 368.73 25.6013 369.262 25.2025C369.529 25.0022 369.783 24.9378 369.804 24.553C369.813 24.396 369.83 23.7061 370.019 23.6949C370.704 23.6546 371.091 21.2508 371.091 21.9371C371.091 22.6783 370.984 23.3746 370.984 24.124C370.984 25.2545 370.477 26.2791 370.15 27.3416C370.073 27.5919 370.046 28.2659 369.697 28.3069C369.494 28.3308 369.334 28.8309 369.268 28.9743C367.952 31.8315 367.329 34.8427 365.681 37.5785C364.469 39.5906 363.427 41.6664 362.088 43.5907C361.463 44.4889 360.633 44.6823 359.853 45.3843C359.147 46.02 357.913 46.1533 357.041 46.4926C356.367 46.7546 355.399 46.862 354.681 46.862" stroke="#23A34E" stroke-width="4" stroke-linecap="round"/>
<path d="M372.915 19.512C373.113 19.5367 373.059 21.1119 373.153 21.3353C373.372 21.8556 373.344 22.7404 373.344 23.3136C373.344 24.1379 373.344 24.9621 373.344 25.7864C373.344 26.8538 372.935 27.9199 372.617 28.9266C372.128 30.4712 371.987 32.1718 371.091 33.5862C370.069 35.2005 369.111 36.9152 367.874 38.3769C367.272 39.0878 366.436 39.5792 365.836 40.2956C365.305 40.9293 364.74 41.5123 364.275 42.2024C363.853 42.8274 363.25 43.7872 362.594 44.2045C361.809 44.7042 360.98 45.0532 360.151 45.4677" stroke="#23A34E" stroke-linecap="round"/>
<path d="M371.842 30.9883C371.691 31.3961 371.321 31.7275 371.199 32.1264C370.984 32.8225 370.658 33.4674 370.4 34.1463C369.892 35.4856 368.807 36.4619 367.814 37.4831C367.607 37.6961 367.659 37.745 367.659 37.4176C367.659 36.7223 368.261 36.2726 368.726 35.8267C369.141 35.4293 369.81 35.0385 370.102 34.5277C370.416 33.9779 370.633 33.3802 370.96 32.8354C371.284 32.2958 371.808 31.6536 371.943 31.0419C372.016 30.7159 371.941 30.38 372.033 30.0468C372.213 29.3936 372.366 28.7627 372.617 28.1162C372.774 27.7109 373.129 27.2038 373.129 26.7517C373.129 26.448 373.073 26.0848 373.183 25.7983C373.311 25.4642 373.007 26.1892 372.968 26.275C372.612 27.0672 372.075 27.7967 371.58 28.5095C371.043 29.2833 370.534 30.2492 370.257 31.1551C370.02 31.9315 369.902 32.7573 369.649 33.5505C369.339 34.5275 369.232 35.6268 368.66 36.5298C367.664 38.1046 366.57 39.6218 365.526 41.1656C364.527 42.643 363.717 44.2184 362.833 45.7656C362.698 46.0011 362.645 46.4722 362.72 46.0635C362.761 45.8378 362.862 45.6049 362.994 45.414C363.503 44.6776 364.48 44.1043 364.871 43.3226" stroke="#23A34E" stroke-linecap="round"/>
<path d="M373.987 26.269C373.756 26.2979 373.865 27.7518 373.856 27.8898C373.81 28.6167 373.626 29.3088 373.558 30.023C373.453 31.1283 372.576 32.2051 372.033 33.1095C371.51 33.9811 371.158 34.9991 370.615 35.8624C369.466 37.6871 368.379 39.5398 367.391 41.4397C366.88 42.4229 365.665 42.9394 364.978 43.8171C364.917 43.8952 364.153 44.8652 364.388 44.3475C364.61 43.8588 364.529 43.3285 364.632 42.8101C364.872 41.6094 365.891 40.7981 366.885 40.1883C366.996 40.1198 367.869 39.5143 367.957 39.5925C368.113 39.7311 367.653 40.2009 367.552 40.2658C367.208 40.4871 366.933 40.858 366.634 41.1358C366.277 41.4687 366.036 41.8558 365.735 42.2321C365.524 42.4954 365.558 42.3955 365.812 42.2381C366.89 41.5688 368.109 41.1449 369.197 40.4922C369.499 40.3108 369.613 39.7329 369.798 39.4197C370.233 38.6866 370.59 37.9157 370.984 37.1554C371.46 36.2384 372.04 35.2247 372.378 34.2655C372.672 33.4337 373.312 32.4948 373.344 31.608C373.375 30.7218 373.527 29.8486 373.445 28.9504C373.23 26.5794 372.898 24.2812 373.666 21.9789" stroke="#23A34E" stroke-linecap="round"/>
</svg>
